<svg width="17" height="17" viewBox="0 0 17 17" fill="none" xmlns="http://www.w3.org/2000/svg">
<g clip-path="url(#clip0_71_4186)">
<path d="M4.08114 16.1769C3.90584 16.1769 3.73177 16.1222 3.5832 16.0148C3.30646 15.8142 3.17719 15.4695 3.25251 15.1368L4.28183 10.6027L0.791017 7.54131C0.534418 7.3173 0.436393 6.96256 0.541743 6.63797C0.647092 6.31398 0.93372 6.08461 1.27308 6.05323L5.89186 5.63391L7.71795 1.36049C7.8526 1.04651 8.15925 0.84375 8.49996 0.84375C8.84066 0.84375 9.14731 1.04651 9.28196 1.35975L11.1081 5.63391L15.7261 6.05323C16.0662 6.08387 16.3528 6.31398 16.4582 6.63797C16.5635 6.96195 16.4661 7.3173 16.2095 7.54131L12.7187 10.6021L13.748 15.1361C13.8235 15.4695 13.6941 15.8142 13.4174 16.0142C13.1414 16.2141 12.7734 16.2295 12.4827 16.0548L8.49996 13.6748L4.51719 16.0562C4.38254 16.1361 4.23251 16.1769 4.08114 16.1769ZM8.49996 12.6495C8.65133 12.6495 8.80123 12.6901 8.936 12.7701L12.6948 15.0182L11.7233 10.7387C11.654 10.4341 11.7574 10.1161 11.9927 9.91002L15.2888 7.01932L10.928 6.62332C10.614 6.59463 10.344 6.39724 10.2213 6.10792L8.49996 2.0751L6.77652 6.10853C6.65518 6.39589 6.38515 6.59329 6.07191 6.62197L1.71047 7.01798L5.00646 9.90868C5.24255 10.1153 5.34582 10.4327 5.27587 10.738L4.30515 15.0175L8.06391 12.7701C8.19856 12.6901 8.34858 12.6495 8.49996 12.6495ZM5.85658 5.71656C5.85658 5.71656 5.85658 5.71729 5.85584 5.7179L5.85658 5.71656ZM11.142 5.7146L11.1427 5.71595C11.1427 5.71521 11.1427 5.71521 11.142 5.7146Z" fill="#FFD600"/>
</g>
<defs>
<clipPath id="clip0_71_4186">
<rect width="16" height="16" fill="white" transform="translate(0.5 0.5)"/>
</clipPath>
</defs>
</svg>
